<?xml version="1.0" encoding="UTF-8"?><svg id="Layer_1" xmlns="http://www.w3.org/2000/svg" viewBox="0 0 733.6 159.9"><defs><style>.cls-1{fill:#ade0ee;}.cls-2{fill:#00bce4;}.cls-3{fill:#243746;}.cls-4{fill:#00a3d0;}.cls-5{fill:#009fda;}</style></defs><g><rect class="cls-1" y="73.52" width="42.43" height="42.43"/><rect class="cls-1" x="42.43" y="115.95" width="42.43" height="42.43"/><rect class="cls-5" y="115.95" width="42.43" height="42.43"/><rect class="cls-2" x="42.43" y="31.09" width="42.43" height="42.43"/><polygon class="cls-2" points="127.3 73.52 127.3 73.52 84.87 73.52 84.87 115.95 127.3 115.95 127.3 73.52 127.3 73.52"/><rect class="cls-5" x="84.87" y="31.09" width="42.43" height="42.43"/><rect class="cls-4" x="42.43" y="73.52" width="42.43" height="42.43"/></g><path class="cls-3" d="M151.03,140.86l18.46-14.53c5.23,9.01,13.52,14.24,22.96,14.24,10.32,0,15.84-6.69,15.84-13.95,0-8.72-10.61-11.48-21.95-14.97-14.24-4.36-30.08-9.88-30.08-30.23,0-17,14.82-30.52,35.31-30.52,17.29,0,27.18,6.54,35.75,15.41l-16.71,12.64c-4.36-6.54-10.61-10.03-18.89-10.03-9.45,0-14.53,5.09-14.53,11.77,0,8.14,10.17,10.9,21.51,14.68,14.39,4.65,30.66,11.05,30.66,31.39,0,16.86-13.37,33.13-36.77,33.13-19.18,0-31.97-8.14-41.56-19.04Zm162.56-55.08h19.76v8.14c4.65-5.96,11.77-9.59,20.06-9.59,17.15,0,27.47,11.04,27.47,29.79v44.33h-20.2v-41.71c0-9.74-4.51-15.41-13.37-15.41-7.56,0-13.81,5.23-13.81,17.44v39.67h-19.91V85.78Zm71.96,36.33c0-25.72,18.89-37.79,35.31-37.79,9.45,0,16.86,3.49,21.65,8.57V52.35h19.91v106.09h-19.91v-8.14c-4.8,5.67-12.5,9.59-21.94,9.59-15.4,0-35.02-12.21-35.02-37.79Zm57.55-.15c0-10.75-7.85-19.47-18.6-19.47s-19.47,8.28-19.47,19.47,8.43,19.62,19.47,19.62,18.6-8.87,18.6-19.62Zm24-16.57c0-30.23,22.82-54.5,54.21-54.5,15.7,0,28.91,5.65,38.47,14.66,3.89,3.67,7.18,7.89,9.78,12.51l-17.73,10.75c-6.54-12.06-16.57-18.31-30.37-18.31-19.33,0-34.3,15.84-34.3,34.88s14.68,34.88,35.02,34.88c15.4,0,26.3-8.72,30.08-22.24h-33.28v-19.33h55.08v8.14c0,28.48-20.35,53.05-51.88,53.05-33.13,0-55.08-25.14-55.08-54.5Zm112.01-19.62h19.76v11.92c3.63-7.56,10.17-11.92,20.06-11.92h7.99l-7.22,19.33h-5.42c-10.61,0-15.26,5.52-15.26,19.04v34.3h-19.91V85.78Zm53.04,0h19.91v72.66h-19.91v-53.33h-7.23l7.23-19.33Zm9.95-11.06c6.58,0,11.91-5.33,11.91-11.91s-5.33-11.91-11.91-11.91-11.91,5.33-11.91,11.91,5.33,11.91,11.91,11.91Zm14.63,47.39c0-25.72,18.89-37.79,35.31-37.79,9.45,0,16.86,3.49,21.65,8.57V52.35h19.91v106.09h-19.91v-8.14c-4.8,5.67-12.5,9.59-21.94,9.59-15.4,0-35.02-12.21-35.02-37.79Zm57.55-.15c0-10.75-7.85-19.47-18.6-19.47s-19.47,8.28-19.47,19.47,8.43,19.62,19.47,19.62,18.6-8.87,18.6-19.62Zm-405.34,0c0-20.93-15.26-37.64-37.49-37.64-20.93,0-37.79,16.86-37.79,37.79s15.7,37.79,38.37,37.79c15.7,0,26.99-7.57,33.35-18.43l-15.79-9.42c-3.35,6.43-9.78,10.41-17.41,10.41-10.46,0-17-5.23-19.33-13.22h56.1v-7.27Zm-55.22-8.72c3.05-6.83,9.45-11.48,17.88-11.48s14.68,3.92,17.29,11.48h-35.17Z"/><g><path class="cls-3" d="M171.05,5.51V30.25h-5.72V5.51h-8.82V.56h23.39V5.51h-8.85Z"/><path class="cls-3" d="M221.61,30.25h-5.42l-6.58-21.6-6.58,21.6h-5.38L189.35,.42l6.01,.08,5.52,21.01L207.07,.56h5.72l6.2,20.95L224.41,.56h5.72l-8.52,29.69Z"/><path class="cls-3" d="M241.42,30.25V.56h5.72V30.25h-5.72Z"/><path class="cls-3" d="M260.39,30.25V.56h5.72V25.21h9.89l.05,5.03h-15.67Z"/><path class="cls-3" d="M287.94,30.25V.56h5.72V30.25h-5.72Z"/><path class="cls-3" d="M319.65,30.81c-8.43,0-13.9-6.2-13.9-15.36s5.51-15.44,13.98-15.44,13.9,6.19,13.9,15.36-5.46,15.45-13.98,15.45Zm.04-26.07c-5.08,0-8.13,4.17-8.13,10.67s3.05,10.67,8.13,10.67,8.18-4.17,8.18-10.67-3.1-10.67-8.18-10.67Z"/></g></svg>