<svg xmlns="http://www.w3.org/2000/svg"  viewBox="0 0 24 24" width="192px" height="192px"><path fill="#001D25" d="M0,2v20c0,1.104,0.896,2,2,2h20c1.104,0,2-0.896,2-2V2c0-1.105-0.895-2-2-2H2C0.896,0,0,0.895,0,2L0,2z"/><path fill="#213A41" d="M22,0H12v24h10c1.104,0,2-0.896,2-2V2C24,0.895,23.104,0,22,0L22,0z"/><path fill="#00C8FE" d="M22,1c0.552,0,1,0.449,1,1v20c0,0.551-0.448,1-1,1H2c-0.552,0-1-0.449-1-1V2c0-0.552,0.448-1,1-1H22L22,1z M22,0H2C0.896,0,0,0.895,0,2v20c0,1.104,0.896,2,2,2h20c1.104,0,2-0.896,2-2V2C24,0.895,23.104,0,22,0L22,0z"/><path fill="#00AEDD" d="M12,0H2C0.896,0,0,0.895,0,2v20c0,1.104,0.896,2,2,2h10v-1H2c-0.552,0-1-0.449-1-1V2c0-0.552,0.448-1,1-1h10	V0L12,0z"/><path fill="#00C8FE" d="M15.555,16.502c-0.876,0-1.619-0.183-2.05-0.43l-0.08-0.164V14.44c0-0.1,0.047-0.133,0.114-0.084	c0.624,0.413,1.352,0.594,2.012,0.594c0.792,0,1.122-0.33,1.122-0.777c0-0.363-0.229-0.676-1.237-1.205	c-1.42-0.679-2.014-1.369-2.014-2.527c0-1.287,1.006-2.36,2.755-2.36c0.86,0,1.464,0.132,1.794,0.279l0.101,0.198v1.37	c0,0.083-0.05,0.133-0.15,0.1c-0.445-0.264-1.1-0.43-1.743-0.43l0.004,0.004c-0.792,0-1.056,0.396-1.056,0.726	c0,0.363,0.18,0.61,1.237,1.155c1.568,0.76,2.062,1.485,2.062,2.557C18.425,15.642,17.205,16.502,15.555,16.502L15.555,16.502z"/><path fill="#00C8FE" d="M8.601,5.314c-0.989,0-1.933,0.017-2.578,0.051L5.8,5.48h0.001v10.758l0.115,0.113H7.46l0.115-0.116v-3.841	c0.265,0,0.394,0.017,0.775,0.017c2.261,0,4.103-1.09,4.103-3.63C12.452,6.834,11.374,5.314,8.601,5.314L8.601,5.314z M8.385,10.808	c-0.397,0-0.579,0-0.808-0.016V6.931c0.181-0.017,0.561-0.033,0.957-0.033c1.336,0,2.122,0.644,2.122,1.914	C10.655,10.396,9.555,10.808,8.385,10.808L8.385,10.808z"/><path fill="#00AEDD" d="M17.269,12h-3.273c0.326,0.353,0.798,0.662,1.439,0.969c1.008,0.529,1.237,0.842,1.237,1.205	c0,0.446-0.33,0.777-1.122,0.777c-0.66,0-1.388-0.181-2.012-0.594c-0.021-0.015-0.039-0.022-0.055-0.022	c-0.036,0-0.059,0.037-0.059,0.106v1.467l0.08,0.164c0.431,0.247,1.174,0.43,2.05,0.43c1.651,0,2.87-0.86,2.87-2.46	C18.425,13.213,18.129,12.591,17.269,12L17.269,12z"/><path fill="#00AEDD" d="M10.495,12H5.801v4.238l0.115,0.113H7.46l0.115-0.116v-3.841c0.265,0,0.394,0.017,0.775,0.017	C9.135,12.41,9.87,12.279,10.495,12L10.495,12z"/></svg>