<svg xmlns="http://www.w3.org/2000/svg"  viewBox="0 0 24 24" width="192px" height="192px"><path fill="#261200" d="M22,0H2C0.896,0,0,0.896,0,2v20c0,1.104,0.895,2,2,2h20c1.104,0,2-0.895,2-2V2C24,0.896,23.104,0,22,0L22,0z"/><path fill="#423121" d="M22,0H12v24h10c1.104,0,2-0.895,2-2V2C24,0.896,23.104,0,22,0L22,0z"/><path fill="#FF7C00" d="M22,1c0.552,0,1,0.449,1,1v20c0,0.551-0.448,1-1,1H2c-0.552,0-1-0.449-1-1V2c0-0.552,0.448-1,1-1H22L22,1z M22,0H2C0.896,0,0,0.896,0,2v20c0,1.104,0.895,2,2,2h20c1.104,0,2-0.895,2-2V2C24,0.896,23.104,0,22,0L22,0z"/><path fill="#DE6C00" d="M12,0H2C0.896,0,0,0.896,0,2v20c0,1.104,0.895,2,2,2h10v-1H2c-0.552,0-1-0.449-1-1V2c0-0.552,0.448-1,1-1h10	V0L12,0z"/><path fill="#FF7C00" d="M16.619,7.09c-0.6,0-1.01-0.363-1.01-1.023h0.004c0-0.643,0.445-1.023,1.023-1.023	c0.61,0,1.023,0.412,1.023,1.023C17.659,6.727,17.229,7.09,16.619,7.09z"/><path fill="#FF7C00" d="M17.531,16.242c0,0.083-0.016,0.116-0.115,0.116h-1.55c-0.101,0-0.133-0.05-0.133-0.13V8.34l-0.009,0.001	l0.116-0.11h1.57l0.12,0.116V16.242L17.531,16.242z"/><path fill="#FF7C00" d="M11.05,5.424l-0.116-0.099H8.838L8.755,5.424C8.739,5.919,8.707,6.077,8.657,6.257l-2.84,9.945	c-0.015,0.115,0,0.148,0.1,0.148h1.468c0.098,0,0.131-0.019,0.148-0.102l0.792-2.998l-0.003-0.001h3.207l0.824,3.015l0.148,0.086	h1.65l0.083-0.132L11.05,5.424L11.05,5.424z M8.753,11.625c0.413-1.55,0.941-3.531,1.155-4.7h0.016	c0.248,1.172,0.908,3.594,1.188,4.7H8.753L8.753,11.625z"/><path fill="#DE6C00" d="M17.531,12h-1.798v4.228c0,0.08,0.032,0.13,0.133,0.13h1.55c0.099,0,0.115-0.033,0.115-0.116V12L17.531,12z"/><path fill="#DE6C00" d="M12.991,12H7.017l-1.2,4.202c-0.015,0.115,0,0.148,0.1,0.148h1.468c0.098,0,0.131-0.019,0.148-0.102	l0.792-2.998l-0.003-0.001h3.207l0.824,3.015l0.148,0.086h1.65l0.083-0.132L12.991,12L12.991,12z"/></svg>