<svg xmlns="http://www.w3.org/2000/svg"  viewBox="0 0 24 24" width="192px" height="192px"><path fill="#1F0640" d="M0,2v20c0,1.105,0.896,2,2,2h20c1.104,0,2-0.895,2-2V2c0-1.105-0.895-2-2-2H2C0.896,0,0,0.895,0,2L0,2z"/><path fill="#3C2659" d="M22,0H12v24h10c1.104,0,2-0.895,2-2V2C24,0.895,23.104,0,22,0L22,0z"/><path fill="#D291FE" d="M22,1c0.552,0,1,0.449,1,1v20c0,0.552-0.448,1-1,1H2c-0.552,0-1-0.449-1-1V2c0-0.552,0.448-1,1-1H22L22,1z M22,0H2C0.896,0,0,0.895,0,2v20c0,1.105,0.896,2,2,2h20c1.104,0,2-0.895,2-2V2C24,0.895,23.104,0,22,0L22,0z"/><path fill="#B77EDD" d="M12,0H2C0.896,0,0,0.895,0,2v20c0,1.105,0.896,2,2,2h10v-1H2c-0.552,0-1-0.449-1-1V2c0-0.552,0.448-1,1-1h10	V0L12,0z"/><path fill="#D291FE" d="M16.502,8.086c-2.144,0-3.367,1.93-3.367,4.29c0,2.178,0.99,4.125,3.63,4.125	c0.826,0,1.483-0.116,2.011-0.38c0.066-0.05,0.1-0.1,0.1-0.2v-1.254L18.758,14.6c-0.527,0.232-1.036,0.31-1.63,0.31	c-1.517,0-2.159-0.906-2.178-2.257h2.604c0.875,0,1.469-0.033,1.667-0.066l0.132-0.127c0.051-0.181,0.086-0.577,0.086-1.057	C19.439,9.919,18.68,8.086,16.502,8.086L16.502,8.086z M17.722,11.259c-0.049,0.016-0.23,0.016-0.742,0.016l-0.002-0.002h-2.014	c0.098-0.89,0.512-1.732,1.468-1.732c1.04,0,1.307,0.999,1.307,1.544L17.722,11.259L17.722,11.259z"/><path fill="#D291FE" d="M9.509,5.446l-0.116-0.1H7.297l-0.083,0.1c-0.016,0.495-0.048,0.64-0.098,0.82l-2.84,9.933	c-0.017,0.115,0,0.15,0.1,0.15h1.468c0.099,0,0.131-0.03,0.149-0.113l0.792-2.986l0.003-0.002h3.2l0.825,3.002l0.146,0.096h1.651	l0.083-0.13L9.509,5.446L9.509,5.446z M7.198,11.626c0.414-1.552,0.956-3.53,1.17-4.7h0.015c0.246,1.17,0.927,3.594,1.206,4.7H7.198	L7.198,11.626z"/><path fill="#B77EDD" d="M18.79,12.625h-5.651c0.074,2.076,1.087,3.876,3.626,3.876c0.826,0,1.483-0.116,2.011-0.38	c0.066-0.05,0.1-0.1,0.1-0.2v-1.254L18.758,14.6c-0.527,0.232-1.036,0.31-1.63,0.31c-1.517,0-2.159-0.906-2.178-2.257h2.604	C18.073,12.653,18.493,12.641,18.79,12.625L18.79,12.625z"/><path fill="#B77EDD" d="M11.631,12.625H5.298l-1.022,3.574c-0.017,0.115,0,0.15,0.1,0.15h1.468c0.099,0,0.131-0.03,0.149-0.113	l0.792-2.986l0.003-0.002h3.2l0.825,3.002l0.146,0.096h1.651l0.083-0.13L11.631,12.625L11.631,12.625z"/></svg>