<svg xmlns="http://www.w3.org/2000/svg"  viewBox="0 0 24 24" width="192px" height="192px"><path fill="#90A4AE" d="M15.854,23.146c-1.313-1.313-1.353-2.586-1.354-2.649C14.498,20.222,14.275,20,14,20H9.98	c-0.276,0-0.5,0.227-0.5,0.503c0,0.054-0.018,1.328-1.334,2.644C7.833,23.46,8.055,24,8.5,24h7	C15.945,24,16.167,23.461,15.854,23.146L15.854,23.146z"/><path fill="#607D8B" d="M22.25,4H1.75C0.785,4,0,4.785,0,5.75v13.5C0,20.215,0.785,21,1.75,21h20.5c0.965,0,1.75-0.785,1.75-1.75	V5.75C24,4.785,23.215,4,22.25,4L22.25,4z"/><polygon fill="#FFF" points="22,17 2,17 2,6 22,6 22,17"/><path fill="#00BCD4" d="M14.25,4.25H13V1c0-0.552-0.448-1-1-1c-0.552,0-1,0.448-1,1v3.25H9.75c-0.666,0-1.001,0.809-0.53,1.28	l2.25,2.25C11.616,7.927,11.808,8,12,8c0.192,0,0.384-0.073,0.53-0.22l2.25-2.25C15.251,5.059,14.916,4.25,14.25,4.25L14.25,4.25z"/><path fill="#00BCD4" d="M15,12H9c-1.103,0-2-0.897-2-2V9c0-0.552,0.448-1,1-1s1,0.448,1,1v1h6V9c0-0.552,0.448-1,1-1s1,0.448,1,1v1	C17,11.103,16.103,12,15,12L15,12z"/><path fill="#7D8F97" d="M12,21H9.409c-0.118,0.501-0.431,1.315-1.262,2.146C7.833,23.46,8.055,24,8.5,24H12V21L12,21z"/><path fill="#546D79" d="M11,4H1.75C0.785,4,0,4.785,0,5.75v13.5C0,20.215,0.785,21,1.75,21h7.659H12v-4H2V6h7.689L9.22,5.53	C8.749,5.059,9.084,4.25,9.75,4.25H11V4L11,4z"/><path fill="#DEDEDE" d="M9.689,6H2v11h10v-5H9c-1.103,0-2-0.897-2-2V9c0-0.552,0.448-1,1-1s1,0.448,1,1v1h3V8l0,0	c-0.192,0-0.384-0.073-0.53-0.22L9.689,6L9.689,6z"/><path fill="#00A4B9" d="M12,0c-0.552,0-1,0.448-1,1v3v0.25H9.75c-0.666,0-1.001,0.809-0.53,1.28L9.689,6l1.78,1.78	C11.616,7.927,11.808,8,12,8l0,0V0L12,0L12,0z"/><path fill="#00A4B9" d="M8,8C7.448,8,7,8.448,7,9v1c0,1.103,0.897,2,2,2h3v-2H9V9C9,8.448,8.552,8,8,8L8,8z"/></svg>