<svg xmlns="http://www.w3.org/2000/svg"  viewBox="0 0 24 24" width="192px" height="192px"><path fill="#430097" d="M1.25,21.841C1.25,23.039,2.207,24,3.406,24h17.188c1.198,0,2.155-0.961,2.155-2.159V2.16	C22.751,0.96,21.794,0,20.595,0H3.406C2.207,0,1.25,0.96,1.25,2.16V21.841L1.25,21.841z M2.448,2.16c0-0.54,0.419-0.961,0.958-0.961	h17.188c0.538,0,0.958,0.421,0.958,0.961v19.681c0,0.539-0.42,0.96-0.958,0.96H3.406c-0.539,0-0.958-0.422-0.958-0.96V2.16	L2.448,2.16z"/><path fill="#DEDEDE" d="M12,1.199H3.406c-0.539,0-0.958,0.421-0.958,0.961v19.681c0,0.539,0.419,0.96,0.958,0.96H12V12.063	C10.05,12.381,8.258,13.2,8.258,13.2l-1.677,0.78V3.6h2.395v6.84C9.812,10.148,10.881,9.854,12,9.704V1.199L12,1.199z"/><path fill="#430097" d="M13.409,11.94c1.197,0,1.497,0.66,1.497,1.26v7.2h2.395v-7.2c0.059-0.179,0.059-1.501-0.959-2.52	c-0.478-0.48-1.377-1.08-2.874-1.08c-1.618,0-3.295,0.421-4.492,0.84V3.6H6.581v10.38l1.677-0.78	C8.258,13.2,11.014,11.94,13.409,11.94L13.409,11.94z"/><path fill="#3A0083" d="M12,0H3.406C2.207,0,1.25,0.96,1.25,2.16v19.681C1.25,23.039,2.207,24,3.406,24H12v-1.199H3.406	c-0.539,0-0.958-0.422-0.958-0.96V2.16c0-0.54,0.419-0.961,0.958-0.961H12V0L12,0z"/><path fill="#3A0083" d="M8.976,3.6H6.581v10.38l1.677-0.78c0,0,1.792-0.819,3.742-1.137V9.704c-1.119,0.151-2.188,0.444-3.024,0.736	V3.6L8.976,3.6z"/><polygon fill="#430097" points="6.641,20.399 9.335,18 6.641,15.6 6.641,20.399"/><polygon fill="#3A0083" points="6.641,15.6 6.641,20.399 7.584,19.559 7.584,16.441 6.641,15.6"/><path fill="#430097" d="M17.36,3.6h-2.394c-0.24,1.379-0.839,2.64-1.798,3.9h2.397C16.641,6.24,17.181,4.979,17.36,3.6L17.36,3.6z"/><path fill="#3A0083" d="M15.335,3.6h-0.369c-0.24,1.379-0.839,2.64-1.798,3.9h2.167V3.6L15.335,3.6z"/></svg>