<svg xmlns="http://www.w3.org/2000/svg"  viewBox="0 0 24 24" width="192px" height="192px"><polygon fill="#F0D91F" points="0,24 24,24 24,0 0,0 0,24"/><polygon fill="#D1BD1B" points="12,0 0,0 0,24 12,24 12,0"/><path d="M19.784,18.629c-0.255-0.961-2.251-1.185-3.616-2.205c-1.38-0.93-1.709-3.18-0.569-4.471c0.39-0.48,1.034-0.84,1.71-1.005	l0.705-0.089c1.365-0.031,2.204,0.329,2.834,1.034c0.182,0.179,0.316,0.36,0.586,0.78c-0.721,0.449-0.721,0.449-1.755,1.125	c-0.226-0.48-0.586-0.78-0.976-0.9c-0.6-0.18-1.365,0.014-1.515,0.66c-0.059,0.195-0.045,0.375,0.046,0.705	c0.243,0.555,1.061,0.795,1.797,1.14c2.115,0.859,2.827,1.778,3.003,2.873l-0.046-0.067c0.166,0.945-0.045,1.56-0.074,1.65	c-0.781,2.67-5.131,2.76-6.871,1.005c-0.36-0.42-0.6-0.63-0.81-1.109l1.83-1.051c0.495,0.75,0.944,1.156,1.755,1.336	C18.914,20.174,20.024,19.799,19.784,18.629L19.784,18.629z"/><path d="M8.133,18.976c0.017,0,0.064,0.091,0.127,0.196c0.233,0.389,0.434,0.659,0.83,0.855c0.386,0.121,1.236,0.209,1.566-0.48	c0.2-0.347,0.137-1.479,0.137-2.711c0-1.941,0.009-3.867,0.009-5.805h2.248l-0.005,0.056c0,2.07,0.012,4.125,0,6.179	c0.006,1.276,0.113,2.416-0.397,3.346c-0.353,0.719-1.028,1.184-1.811,1.411c-1.203,0.27-2.352,0.105-3.207-0.405	c-0.574-0.345-1.019-0.887-1.324-1.517L8.133,18.976L8.133,18.976z"/><path fill="#212121" d="M18.174,10.857c-0.052,0-0.106,0.001-0.16,0.002l-0.705,0.089c-0.676,0.165-1.32,0.525-1.71,1.005	c-1.14,1.291-0.811,3.541,0.569,4.471c0.012,0.009,0.025,0.018,0.037,0.028h4.724c-0.451-0.364-1.066-0.711-1.898-1.049	c-0.737-0.345-1.554-0.585-1.797-1.14c-0.091-0.33-0.105-0.51-0.046-0.705c0.115-0.494,0.589-0.724,1.075-0.724	c0.149,0,0.299,0.022,0.44,0.064c0.39,0.12,0.75,0.42,0.976,0.9c1.034-0.676,1.034-0.676,1.755-1.125	c-0.27-0.42-0.404-0.6-0.586-0.78C20.243,11.216,19.445,10.857,18.174,10.857L18.174,10.857z"/><path fill="#212121" d="M13.051,11.031h-2.248c0,1.81-0.008,3.61-0.009,5.421h2.256c0.006-1.783-0.004-3.568-0.004-5.365	L13.051,11.031L13.051,11.031z"/></svg>