<svg xmlns="http://www.w3.org/2000/svg"  viewBox="0 0 24 24" width="192px" height="192px"><path fill="#0077b5" d="m22 0h-20c-1.104 0-2 .896-2 2v20c0 1.104.895 2 2 2h20c1.104 0 2-.895 2-2v-20c0-1.104-.896-2-2-2z"/><path fill="#00689e" d="m12 0h-10c-1.104 0-2 .896-2 2v20c0 1.104.895 2 2 2h10z"/><path fill="#fff" d="m7.029 21h-3.732v-12.018h3.732z"/><path fill="#fff" d="m5.161 7.343c-1.193 0-2.161-.988-2.161-2.181s.968-2.162 2.161-2.162 2.161.969 2.161 2.162-.968 2.181-2.161 2.181z"/><path fill="#dedede" d="m5.161 8.982h-1.864v12.018h1.864z"/><path fill="#dedede" d="m5.161 3c-1.193 0-2.161.969-2.161 2.162 0 1.192.968 2.181 2.161 2.181z"/><path fill="#fff" d="m21 20.999h-.004v.001h-3.723v-5.85c0-1.395-.028-3.183-1.94-3.183-1.94 0-2.237 1.515-2.237 3.081v5.95h-3.729v-12.016h3.579v1.639h.053c.497-.945 1.715-1.94 3.53-1.94 3.776 0 4.471 2.487 4.471 5.717z"/><path fill="#dedede" d="m15.31 8.843c-1.146.32-1.934 1.063-2.31 1.778h-.053v-1.639h-3.58v12.017h3.728v-5.95c0-1.56.295-3.069 2.215-3.081z"/></svg>