<svg xmlns="http://www.w3.org/2000/svg"  viewBox="0 0 24 24" width="192px" height="192px"><path fill="#eceff1" d="m22 0h-20c-1.104 0-2 .895-2 2v20c0 1.105.896 2 2 2h20c1.104 0 2-.895 2-2v-20c0-1.105-.896-2-2-2z"/><path fill="#757575" d="m18.744 21h-14.244v-6.429h1.585v4.822h11.075v-4.822h1.584z"/><path fill="#cdd0d2" d="m12 0h-10c-1.104 0-2 .895-2 2v20c0 1.105.896 2 2 2h10v-3h-7.5v-6.429h1.585v4.821h5.915z"/><path fill="#666" d="m6.085 14.571h-1.585v6.429h7.5v-1.607h-5.915z"/><path fill="#ff9800" d="m7.661 16.179h7.924v1.594h-7.924z"/><path fill="#de8400" d="m15.585 16.977h-7.924v.796h7.924z"/><path fill="#ff9800" d="m8.157 12.55 7.754 1.66-.325 1.566-7.753-1.647z"/><path fill="#de8400" d="m7.989 13.37-.156.759 7.753 1.647.157-.754v-.001z"/><path fill="#ff9800" d="m9.512 8.906 7.182 3.404-.665 1.457v.002h-.001l.001-.002-7.179-3.394z"/><path fill="#de8400" d="m9.202 9.592-.352.781 7.179 3.394-.001.002h.001v-.002l.386-.845z"/><path fill="#ff9800" d="m11.85 5.56 6.081 5.154-1.01 1.238-6.082-5.155z"/><path fill="#de8400" d="m11.369 6.149-.53.648 6.082 5.155.502-.615-6.054-5.189z"/><path fill="#ff9800" d="m18.232 10.405-4.727-6.441 1.268-.964 4.727 6.44z"/><path fill="#de8400" d="m14.131 3.488-.626.476 4.727 6.441.684-.52z"/></svg>