<svg xmlns="http://www.w3.org/2000/svg"  viewBox="0 0 24 24" width="192px" height="192px"><path fill="#55acee" d="m22 0h-20c-1.104 0-2 .896-2 2v20c0 1.105.896 2 2 2h20c1.104 0 2-.895 2-2v-20c0-1.104-.896-2-2-2zm-1 6.419c-.502.747-1.118 1.396-1.85 1.916.008.155.014.314.014.477 0 4.876-3.712 10.501-10.503 10.501-2.09 0-4.026-.602-5.661-1.656.29.037.581.051.883.051 1.726 0 3.32-.592 4.576-1.574-1.612-.035-2.97-1.109-3.448-2.57.224.049.462.062.698.062.34 0 .667-.039.968-.121-1.678-.345-2.957-1.834-2.957-3.627v-.041c.493.27 1.074.443 1.667.454-.982-.656-1.64-1.788-1.64-3.066 0-.68.187-1.313.506-1.865 1.824 2.24 4.539 3.71 7.606 3.86-.061-.268-.085-.549-.085-.842 0-2.032 1.644-3.69 3.687-3.69 1.053 0 2.019.446 2.696 1.168.839-.168 1.626-.469 2.34-.894-.275.865-.859 1.583-1.624 2.039.745-.095 1.457-.289 2.127-.582z"/><path fill="#dedede" d="m4.253 5.359c-.318.553-.505 1.186-.505 1.866 0 1.278.658 2.41 1.64 3.066-.594-.011-1.175-.184-1.668-.454v.041c0 1.793 1.278 3.282 2.957 3.626-.301.082-.628.121-.968.121-.236 0-.475-.014-.698-.062.478 1.461 1.835 2.535 3.448 2.57-1.255.982-2.85 1.574-4.576 1.574-.302 0-.593-.014-.883-.051 1.635 1.054 3.571 1.656 5.661 1.656 1.159 0 2.228-.164 3.204-.46 0 0-.066-9.901-.005-9.633-3.068-.15-5.783-1.619-7.607-3.86z"/><path fill="#4a96cf" d="m11.865 0h-9.865c-1.104 0-2 .896-2 2v20c0 1.105.896 2 2 2h9.865v-5.147c-.976.296-2.045.46-3.204.46-2.09 0-4.026-.602-5.661-1.656.29.037.581.051.883.051 1.726 0 3.32-.592 4.576-1.574-1.612-.035-2.97-1.109-3.448-2.57.224.049.462.062.698.062.34 0 .667-.039.968-.121-1.678-.345-2.957-1.834-2.957-3.627v-.041c.493.27 1.074.443 1.667.454-.982-.656-1.64-1.788-1.64-3.066 0-.68.187-1.313.506-1.865 1.824 2.24 4.539 3.71 7.606 3.86-.061-.268-.085-.549-.085-.842 0-.281.031-.554.091-.817z"/></svg>