<?xml version="1.0" encoding="UTF-8"?><svg id="Layer_1" xmlns="http://www.w3.org/2000/svg" viewBox="0 0 206.59 1139.74"><defs><style>.cls-1{fill-rule:evenodd;}.cls-1,.cls-2,.cls-3{fill:#231f20;}.cls-2{opacity:0;}</style></defs><path class="cls-3" d="M110.22,324l96.37,246.14-104.24,266.24,31.55-266.66-31.55-265.82,7.87,20.1h0Zm77.45,246.14l-75.09-191.79,31.55,191.73-31.55,191.85,75.09-191.79h0Z"/><polygon class="cls-1" points="37.78 584.57 116.2 584.57 101.63 605.02 24.59 605.02 37.78 584.57 37.78 584.57"/><polygon class="cls-1" points="15.42 615.95 93.83 615.95 79.26 636.4 2.23 636.4 15.42 615.95 15.42 615.95"/><path class="cls-1" d="M37.78,553.39H116.2l-14.57-20.45H24.59l13.19,20.45h0Zm21.08,10.88h72.16l-22.85-47.2,6.38,4,78.14,48.94-84.52,52.93,22.91-47.47H58.86v-11.2h0Zm79.35,0h29.99l-51.74-32.4,21.75,32.4h0Zm38.93,5.6v.27l.21-.13-.21-.13h0Zm-8.52,5.6h-30.25l-21.91,32.67,52.16-32.67h0Z"/><polygon class="cls-1" points="15.42 522.01 93.83 522.01 79.26 501.56 2.23 501.56 15.42 522.01 15.42 522.01"/><rect class="cls-2" width="204.71" height="1139.74"/></svg>