<?xml version="1.0" encoding="UTF-8"?><svg id="Layer_1" xmlns="http://www.w3.org/2000/svg" viewBox="0 0 636.87 362.46"><defs><style>.cls-1,.cls-2{opacity:.5;}.cls-1,.cls-3{fill:#6dccdf;}.cls-4{opacity:.2;}</style></defs><g><polygon class="cls-3" points="294.43 17.74 62.31 17.74 62.31 34.79 16.23 34.79 16.23 128.19 19.64 128.19 19.64 37.53 65.72 37.53 65.72 20.47 294.43 20.47 294.43 17.74"/><rect class="cls-3" x="344.15" y="17.74" width="228.4" height="2.74"/></g><g><polygon class="cls-3" points="574.66 34.79 574.66 17.74 344.15 17.74 344.15 20.47 571.25 20.47 571.25 37.53 617.34 37.53 617.34 128.19 620.74 128.19 620.74 34.79 574.66 34.79"/><rect class="cls-3" x="64.42" y="17.74" width="230.01" height="2.74"/></g><rect class="cls-3" x="403.84" y="19.11" width="144.27" height="6.76"/><rect class="cls-3" x="88.06" y="19.11" width="144.26" height="6.76"/><g><rect class="cls-3" x="245.95" y="14.04" width="48.48" height="5.07"/><rect class="cls-3" x="344.15" y="14.04" width="46.07" height="5.07"/></g><g class="cls-2"><polygon class="cls-3" points="579.76 17.42 579.76 31.9 620.04 31.9 579.76 17.42"/></g><g class="cls-2"><polygon class="cls-3" points="57.81 17.42 57.81 31.9 16.53 31.9 57.81 17.42"/></g><g class="cls-2"><rect class="cls-3" x="542.19" y="180.4" width="131.25" height="6.31" transform="translate(791.38 -424.26) rotate(90)"/></g><g><rect class="cls-3" x="65.02" y="341.5" width="229.41" height="2.74"/><polygon class="cls-3" points="617.94 233.78 617.94 324.44 571.85 324.44 571.85 341.5 344.15 341.5 344.15 344.23 575.26 344.23 575.26 327.18 621.34 327.18 621.34 233.78 617.94 233.78"/></g><g><rect class="cls-3" x="344.15" y="341.5" width="229" height="2.74"/><polygon class="cls-3" points="294.43 344.23 294.43 341.5 66.32 341.5 66.32 324.44 20.24 324.44 20.24 233.78 16.83 233.78 16.83 327.18 62.92 327.18 62.92 344.23 294.43 344.23"/></g><rect class="cls-3" x="89.46" y="336.11" width="144.27" height="6.76" transform="translate(323.19 678.98) rotate(180)"/><rect class="cls-3" x="405.24" y="336.11" width="144.27" height="6.76" transform="translate(954.75 678.98) rotate(180)"/><g><rect class="cls-3" x="247.36" y="342.87" width="47.07" height="5.07"/><rect class="cls-3" x="344.15" y="342.87" width="47.47" height="5.07"/></g><g class="cls-2"><polygon class="cls-3" points="57.81 344.56 57.81 330.08 17.33 330.08 57.81 344.56"/></g><g class="cls-2"><polygon class="cls-3" points="579.76 344.56 579.76 330.08 620.84 330.08 579.76 344.56"/></g><g class="cls-2"><rect class="cls-3" x="-37.22" y="180.4" width="131.25" height="6.31" transform="translate(211.96 155.16) rotate(90)"/></g><path class="cls-1" d="M572.75,0c-2.09,0-3.88,1.03-4.63,2.5h-40.19l-39.27,33.95H146.91L107.64,2.5h-40.19c-.75-1.46-2.54-2.5-4.63-2.5-2.77,0-5.01,1.8-5.01,4.02s2.24,4.02,5.01,4.02c2.24,0,4.11-1.19,4.75-2.81h38.59l39.27,33.95H490.14l39.27-33.95h38.59c.64,1.63,2.51,2.81,4.75,2.81,2.77,0,5.01-1.8,5.01-4.02s-2.25-4.02-5.01-4.02Z"/><path class="cls-1" d="M568.71,354.41c-2.24,0-4.12,1.19-4.76,2.81h-38.58l-39.27-33.95H141.39l-39.27,33.95H63.53c-.64-1.63-2.52-2.81-4.75-2.81-2.77,0-5.01,1.8-5.01,4.02s2.24,4.02,5.01,4.02c2.09,0,3.88-1.03,4.63-2.49h40.19l39.27-33.95H484.62l39.27,33.95h40.19c.75,1.46,2.54,2.49,4.63,2.49,2.77,0,5.01-1.8,5.01-4.02s-2.25-4.02-5.01-4.02Z"/><g class="cls-2"><rect class="cls-3" x="318.92" y="118.6" width=".53" height="125.25"/></g><g class="cls-2"><rect class="cls-3" x="141.18" y="181.02" width="356.02" height=".42"/></g><polygon class="cls-3" points="618.23 152.99 618.23 209.83 636.87 181.41 618.23 152.99"/><polygon class="cls-3" points="18.63 209.83 18.63 152.99 0 181.41 18.63 209.83"/><g class="cls-4"><polygon class="cls-3" points="64.42 168.62 64.42 119.51 131.74 119.51 131.74 117.94 61.96 117.94 61.96 170.19 131.74 170.19 131.74 168.62 64.42 168.62"/></g><g class="cls-4"><polygon class="cls-3" points="64.42 247.62 64.42 198.51 131.74 198.51 131.74 196.94 61.96 196.94 61.96 249.19 131.74 249.19 131.74 247.62 64.42 247.62"/></g><g class="cls-4"><polygon class="cls-3" points="571.73 198.51 571.73 247.62 504.4 247.62 504.4 249.19 574.18 249.19 574.18 196.94 504.4 196.94 504.4 198.51 571.73 198.51"/></g><g class="cls-4"><polygon class="cls-3" points="571.73 119.51 571.73 168.62 504.4 168.62 504.4 170.19 574.18 170.19 574.18 117.94 504.4 117.94 504.4 119.51 571.73 119.51"/></g><path class="cls-3" d="M323.41,181.2c0,1.87-1.88,3.38-4.21,3.38s-4.21-1.51-4.21-3.38,1.88-3.38,4.21-3.38,4.21,1.51,4.21,3.38Z"/></svg>