<?xml version="1.0" encoding="UTF-8"?><svg id="Layer_1" xmlns="http://www.w3.org/2000/svg" viewBox="0 0 24 24"><defs><style>.cls-1{fill:#969696;}</style></defs><path class="cls-1" d="M12,2c5.51,0,10,4.49,10,10s-4.49,10-10,10S2,17.51,2,12,6.49,2,12,2Zm0-2C5.37,0,0,5.37,0,12s5.37,12,12,12,12-5.37,12-12S18.63,0,12,0Zm0,6c-3.31,0-6,2.69-6,6,0,2.65,1.72,4.9,4.1,5.69,.3,.06,.4-.13,.4-.29v-1.12c-1.67,.36-2.02-.71-2.02-.71-.27-.69-.67-.88-.67-.88-.54-.37,.04-.36,.04-.36,.6,.04,.92,.62,.92,.62,.53,.92,1.4,.65,1.75,.5,.05-.39,.21-.65,.38-.8-1.33-.15-2.73-.67-2.73-2.97,0-.65,.23-1.19,.62-1.61-.06-.15-.27-.76,.06-1.59,0,0,.5-.16,1.65,.61,.48-.13,.99-.2,1.5-.2,.51,0,1.02,.07,1.5,.2,1.15-.78,1.65-.61,1.65-.61,.33,.83,.12,1.44,.06,1.59,.39,.42,.62,.95,.62,1.61,0,2.31-1.4,2.81-2.74,2.96,.22,.19,.41,.55,.41,1.11v1.65c0,.16,.1,.35,.4,.29,2.38-.79,4.1-3.04,4.1-5.69,0-3.31-2.69-6-6-6Z"/></svg>