<?xml version="1.0" encoding="UTF-8"?><svg id="Layer_1" xmlns="http://www.w3.org/2000/svg" viewBox="0 0 800 432.28"><defs><style>.cls-1{fill:#f79421;}</style></defs><g><polygon class="cls-1" points="73.03 9.21 4.64 62.89 4.64 184.24 9.03 184.24 9.03 64.32 73.03 14.09 73.03 9.21"/><rect class="cls-1" x="119.95" y="7.96" width="145.09" height="3.44"/></g><g><rect class="cls-1" x="535.86" y="7.96" width="143.95" height="3.44"/><polygon class="cls-1" points="726.26 7.96 725.18 7.96 725.18 11.98 791.86 64.32 791.86 184.24 796.25 184.24 796.25 62.89 726.26 7.96"/></g><g><polygon class="cls-1" points="791.86 246.32 791.86 366.25 725.18 418.59 725.18 422.61 726.26 422.61 796.25 367.68 796.25 246.32 791.86 246.32"/><rect class="cls-1" x="535.86" y="419.16" width="143.95" height="3.45"/></g><g><rect class="cls-1" x="119.95" y="419.16" width="145.09" height="3.45"/><polygon class="cls-1" points="73.03 416.48 9.03 366.25 9.03 246.32 4.64 246.32 4.64 367.68 73.03 421.35 73.03 416.48"/></g><path class="cls-1" d="M314.06,13.67h-12.07c-2.24,0-4.06-1.48-4.06-3.31h0c0-1.83,1.82-3.31,4.06-3.31h12.07c2.24,0,4.06,1.48,4.06,3.31h0c0,1.83-1.82,3.31-4.06,3.31Z"/><path class="cls-1" d="M12.9,215.28c0,2.79-2.89,5.07-6.45,5.07s-6.45-2.27-6.45-5.07,2.89-5.06,6.45-5.06,6.45,2.27,6.45,5.06Z"/><path class="cls-1" d="M800,215.28c0,2.79-2.89,5.07-6.45,5.07s-6.45-2.27-6.45-5.07,2.88-5.06,6.45-5.06,6.45,2.27,6.45,5.06Z"/><path class="cls-1" d="M364.5,13.67h-12.06c-2.24,0-4.05-1.48-4.05-3.31h0c0-1.83,1.81-3.31,4.05-3.31h12.06c2.24,0,4.06,1.48,4.06,3.31h0c0,1.83-1.82,3.31-4.06,3.31Z"/><path class="cls-1" d="M408.14,13.67h-12.06c-2.24,0-4.05-1.48-4.05-3.31h0c0-1.83,1.81-3.31,4.05-3.31h12.06c2.24,0,4.06,1.48,4.06,3.31h0c0,1.83-1.81,3.31-4.06,3.31Z"/><path class="cls-1" d="M451.78,13.67h-12.06c-2.24,0-4.05-1.48-4.05-3.31h0c0-1.83,1.81-3.31,4.05-3.31h12.06c2.24,0,4.06,1.48,4.06,3.31h0c0,1.83-1.81,3.31-4.06,3.31Z"/><path class="cls-1" d="M498.9,13.67h-12.07c-2.24,0-4.05-1.48-4.05-3.31h0c0-1.83,1.81-3.31,4.05-3.31h12.07c2.24,0,4.05,1.48,4.05,3.31h0c0,1.83-1.81,3.31-4.05,3.31Z"/><path class="cls-1" d="M314.06,424.66h-12.07c-2.24,0-4.06-1.48-4.06-3.31h0c0-1.83,1.82-3.31,4.06-3.31h12.07c2.24,0,4.06,1.48,4.06,3.31h0c0,1.83-1.82,3.31-4.06,3.31Z"/><path class="cls-1" d="M364.5,424.66h-12.06c-2.24,0-4.05-1.48-4.05-3.31h0c0-1.83,1.81-3.31,4.05-3.31h12.06c2.24,0,4.06,1.48,4.06,3.31h0c0,1.83-1.82,3.31-4.06,3.31Z"/><path class="cls-1" d="M408.14,424.66h-12.06c-2.24,0-4.05-1.48-4.05-3.31h0c0-1.83,1.81-3.31,4.05-3.31h12.06c2.24,0,4.06,1.48,4.06,3.31h0c0,1.83-1.81,3.31-4.06,3.31Z"/><path class="cls-1" d="M451.78,424.66h-12.06c-2.24,0-4.05-1.48-4.05-3.31h0c0-1.83,1.81-3.31,4.05-3.31h12.06c2.24,0,4.06,1.48,4.06,3.31h0c0,1.83-1.81,3.31-4.06,3.31Z"/><path class="cls-1" d="M498.9,424.66h-12.07c-2.24,0-4.05-1.48-4.05-3.31h0c0-1.83,1.81-3.31,4.05-3.31h12.07c2.24,0,4.05,1.48,4.05,3.31h0c0,1.83-1.81,3.31-4.05,3.31Z"/><rect class="cls-1" x="136.35" width="112.61" height="9.68"/><rect class="cls-1" x="551.52" width="112.61" height="9.68"/><rect class="cls-1" x="136.35" y="422.61" width="112.61" height="9.67"/><rect class="cls-1" x="551.52" y="422.61" width="112.61" height="9.67"/><polygon class="cls-1" points="705.11 27.31 704.82 27.08 399.83 27.08 394.5 27.08 89.51 27.08 47.94 58.9 49.35 60.16 90.33 28.8 394.5 28.8 399.83 28.8 704.01 28.8 744.98 60.16 746.39 58.9 705.11 27.31"/><polygon class="cls-1" points="89.21 402.75 89.51 402.98 394.49 402.98 399.83 402.98 704.82 402.98 746.39 371.16 744.98 369.9 704.01 401.26 399.83 401.26 394.49 401.26 90.33 401.26 49.35 369.9 47.94 371.16 89.21 402.75"/></svg>