<?xml version="1.0" encoding="UTF-8"?><svg id="Layer_1" xmlns="http://www.w3.org/2000/svg" viewBox="0 0 536.42 122.03"><defs><style>.cls-1{opacity:.5;}.cls-2{fill:#fbb040;}</style></defs><polygon class="cls-2" points="3.57 56.43 3.57 7.51 98.94 7.51 111.62 3.72 272.86 3.72 272.86 5.62 113.89 5.62 101.21 9.41 6.48 9.41 6.48 52.79 19.55 49.31 23.41 50.74 3.57 56.43"/><polygon class="cls-2" points="272.86 117.22 111.62 117.22 98.94 113.43 3.57 113.43 3.57 64.51 23.41 70.2 19.55 71.63 6.48 67.85 6.48 111.53 101.21 111.53 113.89 115.32 272.86 115.32 272.86 117.22"/><g class="cls-1"><polygon class="cls-2" points="26.37 104.85 20.54 104.85 20.54 79.8 33.56 76.77 33.56 68.94 3.88 60.61 33.56 52.01 33.56 44.17 20.54 41.15 20.54 16.09 26.37 16.09 26.37 40.17 39.39 43.19 39.39 52.86 12.72 60.59 39.39 68.07 39.39 77.75 26.37 80.77 26.37 104.85"/></g><polygon class="cls-2" points="532.89 56.43 513.05 50.74 516.9 49.31 529.98 52.71 529.98 9.41 435.25 9.41 422.57 5.62 263.6 5.62 263.6 3.72 424.84 3.72 437.52 7.51 532.89 7.51 532.89 56.43"/><polygon class="cls-2" points="424.84 117.22 263.6 117.22 263.6 115.32 422.57 115.32 435.25 111.53 529.98 111.53 529.98 68.02 516.9 71.63 513.05 70.2 532.89 64.51 532.89 113.43 437.52 113.43 424.84 117.22"/><g class="cls-1"><polygon class="cls-2" points="515.92 104.85 510.1 104.85 510.1 80.77 497.07 77.75 497.07 68.07 524.15 60.47 497.07 52.87 497.07 43.19 510.1 40.17 510.1 16.09 515.92 16.09 515.92 41.15 502.89 44.17 502.89 52 533.07 60.47 502.89 68.94 502.89 76.77 515.92 79.8 515.92 104.85"/></g><path class="cls-2" d="M496.36,66.18v-11.43l21.32,5.71-21.32,5.71Zm2.91-9.42v7.41l13.82-3.71-13.82-3.71Z"/><path class="cls-2" d="M39.82,66.18l-21.32-5.71,21.32-5.71v11.43Zm-16.74-5.71l13.82,3.71v-7.41l-13.82,3.71Z"/><polygon class="cls-2" points="111.38 9.25 424.04 9.25 418.56 7.67 117.38 7.67 111.38 9.25"/><polygon class="cls-2" points="424.04 111.79 111.38 111.79 116.87 113.38 418.04 113.38 424.04 111.79"/><g class="cls-1"><path class="cls-2" d="M46.29,5.11h-1.46v-.95h1.46v.95Zm443.84-1.5h-1.46v-.95h1.46v.95ZM46.29,3.21h-1.46v-.95h1.46v.95ZM490.13,1.71h-1.46V.76h1.46v.95ZM46.29,1.31h-1.46V.36h1.46v.95ZM488.1,.47h-2.91v-.47h2.91V.47Zm-5.83,0h-2.91v-.47h2.91V.47Zm-5.83,0h-2.91v-.47h2.91V.47Zm-5.83,0h-2.91v-.47h2.91V.47Zm-5.83,0h-2.91v-.47h2.91V.47Zm-5.83,0h-2.91v-.47h2.91V.47Zm-5.83,0h-2.91v-.47h2.91V.47Zm-5.83,0h-2.91v-.47h2.91V.47Zm-5.83,0h-2.91v-.47h2.91V.47Zm-5.82,0h-2.91v-.47h2.91V.47Zm-5.83,0h-2.91v-.47h2.91V.47Zm-5.83,0h-2.91v-.47h2.91V.47Zm-5.83,0h-2.91v-.47h2.91V.47Zm-5.83,0h-2.91v-.47h2.91V.47Zm-5.83,0h-2.91v-.47h2.91V.47Zm-5.83,0h-2.91v-.47h2.91V.47Zm-5.83,0h-2.91v-.47h2.91V.47Zm-5.83,0h-2.91v-.47h2.91V.47Zm-5.83,0h-2.91v-.47h2.91V.47Zm-5.82,0h-2.92v-.47h2.92V.47Zm-5.83,0h-2.91v-.47h2.91V.47Zm-5.83,0h-2.91v-.47h2.91V.47Zm-5.83,0h-2.91v-.47h2.91V.47Zm-5.83,0h-2.91v-.47h2.91V.47Zm-5.83,0h-2.91v-.47h2.91V.47Zm-5.83,0h-2.91v-.47h2.91V.47Zm-5.83,0h-2.91v-.47h2.91V.47Zm-5.83,0h-2.91v-.47h2.91V.47Zm-5.83,0h-2.91v-.47h2.91V.47Zm-5.83,0h-2.91v-.47h2.91V.47Zm-5.83,0h-2.91v-.47h2.91V.47Zm-5.83,0h-2.91v-.47h2.91V.47Zm-5.82,0h-2.91v-.47h2.91V.47Zm-5.83,0h-2.91v-.47h2.91V.47Zm-5.83,0h-2.91v-.47h2.91V.47Zm-5.83,0h-2.91v-.47h2.91V.47Zm-5.83,0h-2.91v-.47h2.91V.47Zm-5.83,0h-2.91v-.47h2.91V.47Zm-5.83,0h-2.91v-.47h2.91V.47Zm-5.83,0h-2.91v-.47h2.91V.47Zm-5.83,0h-2.91v-.47h2.91V.47Zm-5.83,0h-2.91v-.47h2.91V.47Zm-5.82,0h-2.92v-.47h2.92V.47Zm-5.83,0h-2.91v-.47h2.91V.47Zm-5.83,0h-2.91v-.47h2.91V.47Zm-5.83,0h-2.91v-.47h2.91V.47Zm-5.83,0h-2.91v-.47h2.91V.47Zm-5.83,0h-2.91v-.47h2.91V.47Zm-5.83,0h-2.91v-.47h2.91V.47Zm-5.83,0h-2.91v-.47h2.91V.47Zm-5.83,0h-2.91v-.47h2.91V.47Zm-5.83,0h-2.91v-.47h2.91V.47Zm-5.83,0h-2.91v-.47h2.91V.47Zm-5.83,0h-2.91v-.47h2.91V.47Zm-5.83,0h-2.91v-.47h2.91V.47Zm-5.82,0h-2.91v-.47h2.91V.47Zm-5.83,0h-2.91v-.47h2.91V.47Zm-5.83,0h-2.91v-.47h2.91V.47Zm-5.83,0h-2.91v-.47h2.91V.47Zm-5.83,0h-2.91v-.47h2.91V.47Zm-5.83,0h-2.91v-.47h2.91V.47Zm-5.83,0h-2.91v-.47h2.91V.47Zm-5.83,0h-2.91v-.47h2.91V.47Zm-5.83,0h-2.91v-.47h2.91V.47Zm-5.83,0h-2.91v-.47h2.91V.47Zm-5.82,0h-2.92v-.47h2.92V.47Zm-5.83,0h-2.91v-.47h2.91V.47Zm-5.83,0h-2.91v-.47h2.91V.47Zm-5.83,0h-2.91v-.47h2.91V.47Zm-5.83,0h-2.91v-.47h2.91V.47Zm-5.83,0h-2.91v-.47h2.91V.47Zm-5.83,0h-2.91v-.47h2.91V.47Zm-5.83,0h-2.91v-.47h2.91V.47Zm-5.83,0h-2.91v-.47h2.91V.47Zm-5.83,0h-2.91v-.47h2.91V.47Zm-5.83,0h-2.91v-.47h2.91V.47Z"/></g><g class="cls-1"><path class="cls-2" d="M488.68,116.93h1.46v.95h-1.46v-.95Zm-443.84,1.5h1.46v.95h-1.46v-.95Zm443.84,.4h1.46v.95h-1.46v-.95Zm-443.84,1.5h1.46v.95h-1.46v-.95Zm443.84,.4h1.46v.95h-1.46v-.95Zm-441.81,.84h2.91v.47h-2.91v-.47Zm5.83,0h2.91v.47h-2.91v-.47Zm5.83,0h2.91v.47h-2.91v-.47Zm5.83,0h2.91v.47h-2.91v-.47Zm5.83,0h2.91v.47h-2.91v-.47Zm5.83,0h2.91v.47h-2.91v-.47Zm5.83,0h2.91v.47h-2.91v-.47Zm5.83,0h2.91v.47h-2.91v-.47Zm5.83,0h2.91v.47h-2.91v-.47Zm5.83,0h2.91v.47h-2.91v-.47Zm5.82,0h2.92v.47h-2.92v-.47Zm5.83,0h2.91v.47h-2.91v-.47Zm5.83,0h2.91v.47h-2.91v-.47Zm5.83,0h2.91v.47h-2.91v-.47Zm5.83,0h2.91v.47h-2.91v-.47Zm5.83,0h2.91v.47h-2.91v-.47Zm5.83,0h2.91v.47h-2.91v-.47Zm5.83,0h2.91v.47h-2.91v-.47Zm5.83,0h2.91v.47h-2.91v-.47Zm5.83,0h2.91v.47h-2.91v-.47Zm5.83,0h2.91v.47h-2.91v-.47Zm5.83,0h2.91v.47h-2.91v-.47Zm5.83,0h2.91v.47h-2.91v-.47Zm5.82,0h2.91v.47h-2.91v-.47Zm5.83,0h2.91v.47h-2.91v-.47Zm5.83,0h2.91v.47h-2.91v-.47Zm5.83,0h2.91v.47h-2.91v-.47Zm5.83,0h2.91v.47h-2.91v-.47Zm5.83,0h2.91v.47h-2.91v-.47Zm5.83,0h2.91v.47h-2.91v-.47Zm5.83,0h2.91v.47h-2.91v-.47Zm5.83,0h2.91v.47h-2.91v-.47Zm5.83,0h2.91v.47h-2.91v-.47Zm5.83,0h2.92v.47h-2.92v-.47Zm5.83,0h2.91v.47h-2.91v-.47Zm5.83,0h2.91v.47h-2.91v-.47Zm5.83,0h2.91v.47h-2.91v-.47Zm5.83,0h2.91v.47h-2.91v-.47Zm5.83,0h2.91v.47h-2.91v-.47Zm5.83,0h2.91v.47h-2.91v-.47Zm5.83,0h2.91v.47h-2.91v-.47Zm5.83,0h2.91v.47h-2.91v-.47Zm5.83,0h2.91v.47h-2.91v-.47Zm5.83,0h2.91v.47h-2.91v-.47Zm5.83,0h2.91v.47h-2.91v-.47Zm5.83,0h2.91v.47h-2.91v-.47Zm5.83,0h2.91v.47h-2.91v-.47Zm5.83,0h2.91v.47h-2.91v-.47Zm5.83,0h2.91v.47h-2.91v-.47Zm5.83,0h2.91v.47h-2.91v-.47Zm5.83,0h2.91v.47h-2.91v-.47Zm5.83,0h2.91v.47h-2.91v-.47Zm5.83,0h2.91v.47h-2.91v-.47Zm5.83,0h2.91v.47h-2.91v-.47Zm5.83,0h2.91v.47h-2.91v-.47Zm5.83,0h2.91v.47h-2.91v-.47Zm5.82,0h2.92v.47h-2.92v-.47Zm5.83,0h2.91v.47h-2.91v-.47Zm5.83,0h2.91v.47h-2.91v-.47Zm5.83,0h2.91v.47h-2.91v-.47Zm5.83,0h2.91v.47h-2.91v-.47Zm5.83,0h2.91v.47h-2.91v-.47Zm5.83,0h2.91v.47h-2.91v-.47Zm5.83,0h2.91v.47h-2.91v-.47Zm5.83,0h2.91v.47h-2.91v-.47Zm5.83,0h2.91v.47h-2.91v-.47Zm5.83,0h2.91v.47h-2.91v-.47Zm5.83,0h2.91v.47h-2.91v-.47Zm5.83,0h2.91v.47h-2.91v-.47Zm5.82,0h2.91v.47h-2.91v-.47Zm5.83,0h2.91v.47h-2.91v-.47Zm5.83,0h2.91v.47h-2.91v-.47Zm5.83,0h2.91v.47h-2.91v-.47Zm5.83,0h2.91v.47h-2.91v-.47Zm5.83,0h2.91v.47h-2.91v-.47Zm5.83,0h2.91v.47h-2.91v-.47Z"/></g><polygon class="cls-2" points="536.42 39.05 531.35 40.48 531.35 19.85 536.42 21.29 536.42 39.05"/><polygon class="cls-2" points="536.42 99.65 531.35 101.09 531.35 80.46 536.42 81.89 536.42 99.65"/><polygon class="cls-2" points="0 81.89 5.07 80.46 5.07 101.09 0 99.65 0 81.89"/><polygon class="cls-2" points="0 21.29 5.07 19.85 5.07 40.48 0 39.05 0 21.29"/></svg>