<?xml version="1.0" encoding="UTF-8"?><svg id="Layer_1" xmlns="http://www.w3.org/2000/svg" viewBox="0 0 2225.23 2230.64"><defs><style>.cls-1,.cls-2,.cls-3,.cls-4,.cls-5{fill:#ff9b35;}.cls-2{stroke:#e9589f;}.cls-2,.cls-3,.cls-4,.cls-5{stroke-miterlimit:10;}.cls-3{stroke:#ed7540;}.cls-4{stroke:#e9565f;}.cls-5{stroke:#6bb94e;}</style></defs><g><path class="cls-5" d="M699.88,98.83S102.58,798.23,835.58,1577.33c0,0-643.4-214-713.4-713.4,0,0-103.5-509.1,577.7-765.1h0Z"/><path class="cls-3" d="M639.68,1119.93S723.58,98.83,1796.48,228.93c0,0-465.8-381.9-895.2-158.1-1.4,0-611.3,331.5-261.6,1049.1h0Z"/><path class="cls-4" d="M891.48,668.13s261.6-437.8,923.2-345.5c0,0,479.8,144.1,401.4,979.1-1.4,0-267.2-1011.3-1324.6-633.6h0Z"/><path class="cls-2" d="M1431.38,644.33s815.5,797.3,0,1566.6c0,0,499.4-132.9,688.2-594.5,0,0,193-686.7-688.2-972.1h0Z"/></g><path class="cls-1" d="M1692.98,1189.83s-363.7,1035.1-1342.8,734.3c0,0,292.3,398.6,812.7,286.7-.1,.1,661.5-50.2,530.1-1021h0Z"/><path class="cls-1" d="M35.48,896.13s226.6,937.2,1314.8,720.4c0,0-384.7,468.6-1000.1,230.8,0-.1-482.6-244.8-314.7-951.2h0Z"/></svg>